<?xml version="1.0" standalone="no"?>
<!DOCTYPE svg PUBLIC "-//W3C//DTD SVG 20010904//EN"
 "http://www.w3.org/TR/2001/REC-SVG-20010904/DTD/svg10.dtd">
<svg version="1.0" xmlns="http://www.w3.org/2000/svg"
 width="1024.000000pt" height="1024.000000pt" viewBox="0 0 1024.000000 1024.000000"
 preserveAspectRatio="xMidYMid meet">

<g transform="translate(0.000000,1024.000000) scale(0.100000,-0.100000)"
fill="#000000" stroke="none">
<path d="M4775 10229 c-1687 -121 -3179 -1037 -4055 -2489 -506 -838 -771
-1926 -710 -2910 96 -1533 829 -2902 2035 -3803 616 -460 1298 -768 2045 -922
973 -200 1988 -112 2916 256 1358 537 2415 1620 2920 2993 139 378 246 848
290 1272 22 214 25 738 6 929 -93 907 -366 1689 -835 2395 -189 284 -369 504
-615 754 -860 869 -1934 1386 -3142 1511 -185 20 -671 27 -855 14z m657 -169
c1437 -95 2739 -791 3615 -1932 677 -881 1050 -2019 1020 -3113 -10 -350 -33
-554 -103 -905 -226 -1128 -879 -2177 -1805 -2897 -698 -541 -1553 -897 -2414
-1003 -1094 -135 -2150 81 -3114 634 -578 333 -1100 800 -1506 1351 -139 189
-318 480 -422 690 -634 1268 -701 2739 -185 4050 251 640 613 1188 1106 1680
516 514 1065 872 1727 1128 645 250 1389 363 2081 317z"/>
<path d="M4868 9836 c-21 -7 -49 -21 -63 -30 -31 -21 -65 -86 -65 -126 0 -38
-9 -38 -46 1 -71 75 -195 115 -324 106 -95 -8 -354 -64 -400 -87 -80 -41 -116
-124 -101 -231 21 -143 122 -700 133 -730 18 -54 45 -86 91 -108 52 -25 93
-26 184 -6 95 22 119 33 152 70 40 46 55 97 48 165 l-6 57 42 12 c52 16 139
65 182 102 l33 29 -5 -78 c-6 -97 8 -152 53 -202 45 -50 82 -62 202 -63 103
-2 125 4 175 51 l27 26 33 -31 c17 -18 45 -37 60 -42 36 -14 162 -14 225 0 43
9 55 7 88 -10 43 -22 514 -121 575 -121 25 0 72 -17 140 -50 57 -28 116 -50
133 -50 46 1 110 33 135 69 l22 31 45 -26 c25 -15 64 -32 86 -39 l42 -12 -3
-47 c-3 -59 12 -106 47 -139 35 -34 151 -87 203 -94 32 -5 43 -11 50 -32 15
-39 53 -75 140 -132 89 -58 136 -69 193 -45 21 9 40 16 41 16 2 0 6 -19 9 -43
25 -168 235 -370 407 -393 l49 -7 0 -41 c0 -84 106 -252 175 -277 19 -7 35
-16 35 -20 0 -3 -39 -6 -87 -5 l-88 1 -183 -99 c-125 -67 -192 -109 -211 -133
-21 -25 -42 -79 -76 -197 -26 -88 -78 -262 -115 -386 l-67 -225 -40 -15 c-114
-43 -173 -122 -181 -244 -4 -67 -7 -74 -46 -116 -94 -100 -219 -280 -262 -377
-17 -38 -34 -58 -66 -77 l-43 -26 -20 21 c-20 21 -20 21 0 35 93 67 114 86
143 129 50 76 69 157 101 435 43 366 61 577 68 805 5 191 4 203 -17 260 -28
71 -102 150 -173 183 -81 38 -608 192 -808 236 -23 5 -27 13 -38 73 -7 38 -23
95 -36 127 l-24 59 24 41 c46 82 42 166 -14 243 -97 134 -317 95 -364 -64 -38
-126 33 -245 164 -276 22 -6 27 -14 33 -53 11 -82 10 -87 -21 -79 -79 20 -500
106 -562 115 -93 13 -188 -6 -280 -56 -124 -68 -413 -265 -473 -322 -33 -31
-72 -77 -86 -101 -20 -34 -28 -41 -34 -30 -5 8 -43 78 -85 157 -78 147 -101
172 -155 172 -42 0 -66 -27 -88 -99 -11 -37 -20 -78 -20 -91 0 -24 26 -112
117 -400 l55 -175 -16 -52 c-47 -148 -43 -328 9 -421 14 -25 23 -47 21 -49 -4
-4 -391 -143 -606 -218 -52 -18 -286 -101 -519 -184 -232 -83 -426 -151 -430
-151 -4 0 -17 20 -29 45 -15 31 -33 50 -61 65 -49 24 -65 25 -116 1 -92 -42
-176 -171 -250 -381 -110 -315 -145 -630 -85 -754 57 -118 181 -128 276 -24
l36 41 522 -88 c286 -48 524 -89 527 -91 4 -2 4 -24 2 -48 -4 -33 0 -56 16
-88 26 -54 26 -60 2 -82 -29 -26 -54 -91 -47 -121 14 -56 239 -159 394 -180
l52 -7 0 -49 c0 -45 3 -50 32 -65 18 -9 81 -27 141 -39 59 -12 110 -25 113
-28 7 -7 -50 -118 -101 -197 -23 -36 -97 -127 -164 -204 -66 -76 -121 -143
-121 -147 0 -5 -38 -46 -84 -91 -96 -95 -116 -137 -141 -291 -27 -167 -14
-320 34 -415 83 -162 293 -221 432 -120 74 53 150 206 184 368 5 23 24 51 54
80 118 114 366 497 496 766 l53 111 154 -33 c84 -19 187 -41 228 -51 l75 -16
-65 -19 c-36 -10 -108 -30 -160 -44 -126 -33 -176 -59 -211 -107 -46 -63 -61
-127 -66 -282 -7 -182 6 -268 55 -365 29 -60 47 -82 85 -107 83 -56 189 -56
272 -1 58 39 113 122 146 221 13 40 24 73 24 74 1 2 66 19 146 39 309 77 419
141 480 278 24 55 28 165 9 236 -6 23 -10 43 -8 44 2 2 118 26 258 55 140 29
261 58 268 65 7 6 26 81 42 166 17 84 31 155 33 156 1 1 146 -26 322 -60 l320
-61 17 -54 c42 -131 142 -158 235 -64 113 113 220 491 211 745 -4 124 -24 182
-74 214 -33 22 -88 20 -129 -5 l-33 -19 -123 136 c-154 169 -156 172 -138 182
44 25 224 177 273 231 101 111 212 284 240 376 4 13 35 50 69 84 l61 62 111
-33 c181 -54 187 -55 229 -35 21 10 45 29 53 42 9 13 38 99 65 191 27 92 96
325 154 518 57 193 104 363 104 378 l0 27 37 -26 c55 -37 114 -34 181 8 83 51
541 406 604 467 48 47 57 62 63 103 10 68 -4 108 -75 210 -95 135 -136 157
-254 136 -37 -6 -69 -9 -72 -7 -2 3 9 37 26 76 35 83 39 150 12 203 -31 61
-139 185 -176 203 -46 22 -103 20 -149 -4 -20 -11 -39 -20 -42 -20 -3 0 6 20
20 43 34 59 34 134 1 191 -29 50 -132 141 -183 162 -24 10 -52 14 -78 11 l-40
-6 -1 42 c-1 56 -22 93 -87 156 -97 94 -120 106 -198 106 -67 0 -69 1 -69 25
0 14 -11 48 -24 76 -18 40 -38 62 -87 96 -35 25 -77 52 -94 61 -82 41 -153 29
-215 -36 l-41 -42 16 45 c21 56 14 128 -16 177 -17 28 -44 46 -124 85 -162 79
-207 76 -316 -18 l-64 -55 -7 84 c-10 140 -47 189 -185 248 -95 40 -170 45
-223 13 -31 -18 -47 -36 -87 -100 -9 -16 -10 -12 -6 22 10 78 -31 160 -94 193
-26 13 -515 111 -556 111 -74 0 -148 -62 -168 -142 -7 -26 -15 -48 -18 -48 -3
0 -15 18 -25 40 -35 74 -124 140 -235 177 -66 22 -441 29 -493 9z m480 -134
c122 -47 172 -121 172 -258 0 -67 -4 -89 -26 -133 -16 -32 -42 -64 -64 -80
l-38 -26 69 -133 c38 -72 69 -141 69 -152 0 -26 -23 -36 -102 -45 -118 -12
-128 -5 -203 146 -65 128 -65 129 -100 129 l-35 0 0 -113 c0 -152 -3 -157
-116 -157 -134 0 -125 -34 -117 422 6 420 5 412 67 422 17 2 108 3 201 1 141
-3 179 -7 223 -23z m780 -86 c95 -19 180 -41 189 -48 18 -15 13 -109 -9 -154
-18 -40 -50 -41 -209 -9 -72 15 -135 23 -139 18 -5 -4 -10 -28 -12 -53 l-3
-45 107 -22 c152 -31 152 -31 145 -111 -7 -71 -26 -102 -62 -102 -12 0 -68 9
-125 21 -109 22 -119 20 -120 -26 0 -11 -3 -29 -6 -40 -5 -18 6 -22 138 -49
79 -16 153 -34 165 -39 30 -14 37 -55 19 -123 -25 -96 -11 -95 -283 -39 -131
26 -253 54 -270 61 -48 19 -53 -20 61 557 25 125 48 233 52 238 19 32 44 30
362 -35z m-1595 28 c60 -21 104 -62 134 -122 24 -50 28 -69 28 -147 0 -81 -3
-95 -30 -144 -47 -86 -116 -128 -260 -160 -44 -9 -80 -22 -80 -27 0 -5 7 -56
15 -113 16 -123 18 -121 -97 -147 -67 -15 -75 -15 -97 0 -13 8 -27 28 -30 43
-7 37 -91 514 -111 631 -23 133 -25 131 170 172 195 41 273 44 358 14z m2194
-201 c56 -24 87 -43 92 -57 5 -12 14 -88 20 -171 6 -82 14 -169 17 -193 l5
-42 120 102 c177 152 185 158 217 149 15 -5 60 -25 100 -45 52 -26 72 -42 72
-56 0 -10 -54 -162 -119 -337 -167 -445 -147 -403 -187 -403 -38 0 -130 34
-156 57 -10 9 -18 24 -18 34 0 10 32 98 71 194 39 97 69 178 67 180 -2 2 -52
-39 -111 -91 -59 -52 -113 -94 -120 -94 -29 0 -118 51 -126 72 -6 13 -13 81
-17 151 -3 71 -9 125 -14 120 -4 -4 -43 -84 -86 -176 -45 -96 -87 -173 -98
-179 -15 -8 -35 -2 -95 28 -110 56 -110 54 -11 259 46 94 118 244 162 335 76
159 101 200 120 200 5 0 48 -16 95 -37z m-396 -246 c-10 -9 -11 -8 -5 6 3 10
9 15 12 12 3 -3 0 -11 -7 -18z m1373 -258 c69 -42 96 -68 96 -94 0 -11 -67
-122 -148 -245 -81 -124 -176 -268 -210 -322 -35 -53 -70 -99 -78 -102 -33
-13 -184 89 -184 123 0 10 17 44 38 77 21 32 107 165 191 294 185 285 196 300
223 300 11 0 44 -14 72 -31z m333 -252 c32 -18 123 -107 123 -120 0 -21 -32
-61 -175 -222 -187 -210 -202 -236 -174 -299 15 -32 71 -59 108 -51 31 7 93
68 264 262 65 72 126 135 138 138 23 7 50 -8 110 -62 57 -52 64 -69 43 -101
-27 -42 -220 -259 -310 -348 -64 -64 -94 -86 -140 -104 -117 -44 -245 -9 -350
96 -63 63 -91 114 -105 190 -12 66 6 151 46 214 57 90 359 420 384 420 9 -1
26 -6 38 -13z m680 -674 c42 -38 103 -131 103 -157 0 -14 -36 -99 -81 -187
-44 -89 -78 -163 -76 -166 3 -2 74 5 157 16 240 33 225 36 293 -59 64 -91 70
-121 30 -147 -45 -28 -339 -249 -465 -350 -65 -51 -127 -93 -138 -93 -38 0
-120 109 -120 159 0 32 31 59 244 214 48 34 72 57 60 57 -10 0 -75 -9 -144
-19 l-125 -18 -30 31 c-66 71 -66 72 3 212 34 68 60 124 57 124 -3 0 -74 -46
-157 -101 -84 -56 -160 -104 -170 -107 -23 -6 -71 45 -104 110 -20 39 -22 52
-14 69 6 11 129 98 273 193 411 270 371 248 404 219z m-2956 -26 c48 -32 68
-95 48 -151 -19 -55 -67 -86 -131 -86 -42 0 -54 4 -78 30 -15 16 -30 40 -33
52 -6 20 -3 19 18 -7 19 -23 24 -26 25 -12 0 9 5 17 11 17 5 0 8 4 4 10 -3 5
-13 7 -23 4 -13 -5 -14 -4 -3 4 9 7 10 15 3 28 -16 33 -21 78 -9 95 34 45 114
52 168 16z m-189 -87 c-2 -16 -6 -30 -8 -30 -2 0 -4 14 -4 30 0 17 4 30 8 30
5 0 7 -13 4 -30z m226 -263 c11 -29 23 -73 27 -98 l7 -46 -29 4 c-29 5 -30 6
-40 91 -6 48 -9 90 -6 95 10 17 23 4 41 -46z m-517 -106 c509 -103 1242 -298
1422 -378 67 -30 117 -82 142 -147 16 -41 17 -68 12 -219 -11 -293 -73 -912
-108 -1072 -16 -71 -56 -140 -103 -178 -95 -77 -391 -215 -425 -198 -9 4 -50
16 -91 27 -61 15 -84 26 -123 62 -122 112 -396 184 -707 187 -143 2 -181 6
-284 30 l-119 29 -91 -18 c-50 -10 -147 -31 -216 -47 -69 -16 -138 -29 -155
-29 -41 0 -143 50 -182 88 -50 50 -58 88 -58 264 0 86 3 159 7 163 3 4 20 0
36 -9 44 -23 105 -30 145 -17 43 15 107 82 141 150 98 192 92 495 -12 613 -13
16 -13 29 3 130 30 196 45 287 52 305 4 11 3 14 -5 9 -8 -5 -10 -2 -6 8 3 9 9
14 13 11 4 -2 13 10 19 28 9 25 36 47 115 98 113 74 197 121 242 137 55 19
139 12 336 -27z m-1131 -416 c106 -211 119 -241 103 -246 -10 -4 -33 -13 -52
-20 -18 -7 -47 -23 -62 -37 -22 -17 -30 -20 -34 -10 -7 21 -70 222 -109 348
-21 69 -33 126 -30 140 25 106 24 104 44 84 10 -10 73 -127 140 -259z m412
195 c-31 -29 -52 -113 -71 -284 -15 -139 -18 -151 -36 -149 -11 2 -40 4 -64 5
-41 2 -44 5 -67 52 -28 58 -30 87 -9 145 30 86 113 171 227 234 42 22 47 22
20 -3z m3726 -92 c47 -65 47 -69 3 -127 l-18 -23 -22 36 c-12 20 -38 49 -58
65 -30 25 -33 32 -24 49 11 21 59 62 70 61 3 0 26 -27 49 -61z m-239 -33 c2
-3 -7 -25 -20 -51 -18 -35 -34 -51 -66 -65 -58 -25 -77 -57 -71 -121 7 -71 38
-98 112 -98 45 0 56 4 82 31 38 40 40 102 5 149 -23 32 -23 33 -6 71 28 60 39
65 70 28 31 -38 167 -306 185 -364 10 -37 7 -53 -38 -200 -45 -146 -141 -468
-224 -754 -27 -91 -39 -119 -61 -134 -33 -25 -24 -27 -382 82 -232 70 -260 81
-266 102 -15 53 -10 74 22 93 18 10 40 27 50 37 17 17 19 17 48 -11 46 -42 40
-67 -7 -34 -24 16 -42 12 -42 -12 0 -16 39 -34 75 -34 21 0 55 32 55 52 0 4
-14 21 -32 37 -34 31 -32 54 3 33 11 -7 24 -10 29 -7 21 13 8 34 -26 45 -31
10 -38 10 -56 -7 -21 -18 -21 -18 -15 5 13 54 -44 142 -93 142 -30 0 -31 14
-11 82 69 228 181 610 191 646 6 24 22 52 35 64 13 11 102 63 197 114 157 85
177 94 213 89 21 -3 41 -8 44 -10z m-74 -185 c-10 -15 14 -50 34 -50 10 0 26
10 34 23 l16 22 0 -32 c1 -38 -21 -63 -55 -63 -27 0 -64 32 -64 56 0 21 19 54
31 54 6 0 7 -4 4 -10z m-3513 -230 c39 -42 52 -100 52 -230 -1 -129 -16 -199
-67 -293 -49 -93 -92 -114 -175 -84 l-33 12 30 23 c120 88 165 455 71 574 -10
14 -17 27 -15 30 3 2 28 3 57 1 43 -3 58 -9 80 -33z m-179 -29 c35 -42 51
-118 44 -215 -5 -79 -35 -189 -58 -210 -9 -8 -9 -5 0 11 11 22 16 81 5 70 -7
-6 -55 47 -71 78 -6 11 -18 55 -28 98 -9 42 -20 77 -24 77 -17 0 -33 -75 -38
-182 -6 -132 1 -163 49 -203 26 -22 27 -25 9 -25 -58 0 -101 141 -81 268 18
113 41 173 86 219 48 51 73 54 107 14z m3081 -613 c61 -27 38 -90 -49 -133
-33 -16 -62 -31 -64 -33 -2 -1 1 -12 8 -25 6 -12 22 -56 34 -97 21 -66 26 -75
46 -73 21 3 247 -60 259 -71 9 -10 -41 -57 -77 -72 -115 -48 -284 34 -351 170
-30 59 -32 71 -29 144 3 66 9 85 32 121 44 66 130 97 191 69z m-3258 -74 c-4
-20 -10 -34 -12 -31 -3 3 -35 -3 -70 -13 -43 -11 -61 -13 -54 -5 5 6 7 15 3
18 -3 4 0 7 7 7 7 0 10 3 7 7 -4 3 -15 -1 -25 -10 -15 -14 -19 -14 -19 -3 0 8
16 21 36 30 49 20 125 44 130 40 2 -2 0 -19 -3 -40z m-186 -32 c0 -5 -14 -28
-30 -51 -17 -23 -49 -90 -72 -149 -23 -59 -43 -109 -45 -111 -3 -5 -372 -113
-773 -226 -190 -53 -380 -107 -422 -120 -42 -13 -78 -22 -80 -20 -2 2 -1 45 2
97 l5 93 300 107 c165 59 417 149 560 199 143 51 321 114 395 140 140 50 160
55 160 41z m3186 -274 c26 -57 107 -137 175 -171 30 -15 84 -33 120 -39 35 -6
65 -13 67 -14 8 -5 -70 -144 -111 -201 -60 -80 -171 -197 -212 -223 -30 -19
-35 -19 -90 -4 -33 8 -73 24 -91 35 -71 44 -130 135 -144 223 -6 42 -4 58 13
91 43 86 229 344 248 345 3 0 15 -19 25 -42z m-2892 -155 l58 -51 -127 -30
c-70 -17 -131 -34 -136 -39 -4 -4 -15 -52 -24 -105 -8 -54 -18 -103 -21 -110
-3 -7 -24 -29 -47 -48 -104 -86 -233 -259 -279 -376 -40 -99 -31 -247 19 -321
l24 -36 -43 7 c-176 25 -499 80 -508 86 -9 6 110 479 227 902 l15 57 67 20
c57 17 331 93 596 166 l80 22 21 -46 c13 -28 44 -67 78 -98z m-1828 69 c36
-24 50 -123 34 -247 -23 -192 -122 -559 -185 -688 -55 -111 -125 -157 -168
-109 -66 73 -36 398 63 686 67 194 131 309 194 347 34 21 45 23 62 11z m2889
-171 c293 -75 300 -77 299 -101 -1 -14 -20 -130 -44 -258 -51 -274 -51 -274
41 -226 l59 32 18 -23 c9 -13 25 -37 35 -55 l17 -32 33 20 c19 11 45 27 58 36
25 16 26 15 67 -44 45 -64 57 -71 66 -42 10 29 86 459 86 482 0 11 3 20 7 20
8 0 567 -143 571 -146 2 -1 -10 -74 -27 -161 -16 -87 -49 -257 -71 -378 -64
-342 -160 -854 -171 -912 l-10 -51 -32 9 c-18 5 -135 32 -262 60 -126 28 -331
73 -455 100 -124 28 -337 75 -475 105 -372 81 -426 95 -431 109 -3 6 10 92 28
190 l33 178 55 14 c130 33 219 103 276 219 33 66 37 83 37 149 -1 60 -6 86
-27 130 -34 68 -93 120 -163 142 -42 13 -53 21 -53 37 0 22 53 344 71 434 10
50 12 52 37 45 15 -3 162 -41 327 -82z m-445 65 c0 -12 -30 -186 -57 -339 -4
-21 -11 -28 -27 -26 -63 5 -96 -2 -126 -27 l-31 -27 7 61 c5 48 2 75 -15 129
-23 75 -40 100 -95 137 l-37 25 73 15 c40 9 120 26 178 40 130 29 130 29 130
12z m-1520 -49 c0 -2 -45 -177 -101 -388 -56 -211 -110 -419 -121 -462 l-21
-78 -51 6 c-102 14 -680 115 -685 120 -3 3 1 20 8 38 22 56 98 328 120 432 12
55 23 101 25 102 2 2 75 23 162 48 87 24 269 76 404 114 249 71 260 74 260 68z
m1111 -90 c81 -43 115 -161 81 -283 -15 -53 -61 -113 -87 -113 l-20 0 20 9
c11 5 15 9 9 9 -7 1 -15 25 -18 55 -9 72 -56 167 -97 198 -43 32 -102 51 -140
46 l-30 -5 33 35 c72 75 165 93 249 49z m-311 -4 c-1 -10 -39 -60 -40 -51 0
17 21 58 30 58 5 0 10 -3 10 -7z m1699 -58 c80 -20 148 -38 152 -41 4 -2 4
-19 -1 -37 -4 -17 -23 -111 -40 -207 l-33 -174 -33 39 -32 39 -52 -32 c-29
-18 -54 -31 -55 -30 -1 2 -12 22 -24 45 -11 23 -25 45 -31 48 -6 4 -30 -3 -52
-14 -23 -11 -44 -18 -46 -16 -3 3 7 71 22 152 15 82 32 176 38 211 9 50 14 61
27 58 9 -3 81 -21 160 -41z m746 -15 c21 -23 22 -21 -31 -48 -37 -19 -45 -20
-85 -8 l-44 14 65 31 c36 17 68 31 71 31 3 0 14 -9 24 -20z m256 -125 c16 -33
47 -80 69 -103 45 -49 50 -60 18 -38 -33 23 -45 19 -15 -5 22 -16 24 -23 14
-34 -13 -14 -27 -11 -27 6 0 6 5 7 10 4 6 -3 10 -1 10 4 0 15 -13 14 -29 -1
-7 -7 -12 -8 -11 -3 4 20 0 36 -9 31 -28 -18 -81 108 -80 192 0 48 2 53 10 32
6 -14 24 -52 40 -85z m-108 5 c10 -118 66 -215 153 -266 24 -14 44 -27 44 -29
0 -2 -37 -24 -81 -50 -95 -55 -209 -107 -209 -97 0 4 12 77 27 162 15 85 27
180 28 210 0 53 -1 55 -38 76 l-38 21 48 21 c26 12 51 21 54 22 3 0 9 -32 12
-70z m-2480 39 c44 -23 78 -64 92 -113 16 -53 19 -114 7 -132 -4 -6 -66 -21
-138 -33 -120 -20 -134 -20 -167 -6 -41 17 -133 20 -171 5 -14 -5 -26 -6 -26
-2 0 17 112 140 166 183 131 103 184 125 237 98z m519 -155 c14 -13 -6 -42
-38 -53 -38 -14 -62 -47 -46 -63 7 -7 31 -7 75 2 75 14 115 8 174 -26 64 -37
88 -84 88 -174 0 -65 -4 -82 -31 -130 -39 -69 -110 -124 -193 -150 -84 -26
-127 -25 -188 5 -86 43 -128 128 -121 249 2 54 10 85 30 124 51 99 101 165
147 193 41 27 89 37 103 23z m-312 -177 c0 -7 -4 -17 -9 -22 -17 -18 -41 -118
-41 -170 0 -102 55 -215 128 -266 l35 -24 -43 -18 c-70 -31 -229 -67 -320 -73
-102 -8 -231 14 -293 48 -63 35 -82 76 -82 178 0 70 4 93 23 130 44 83 100
126 217 163 54 18 253 54 325 60 25 2 48 4 53 5 4 1 7 -4 7 -11z m-480 -5 c0
-4 -16 -16 -35 -26 -19 -11 -61 -47 -94 -80 -47 -49 -62 -74 -76 -121 -10 -33
-20 -67 -22 -75 -4 -12 -6 -11 -15 4 -17 30 -3 139 23 193 20 40 34 53 87 81
58 29 132 43 132 24z m3130 -181 c232 -253 220 -238 219 -279 -1 -20 -4 -48
-8 -61 l-7 -25 -19 25 c-11 13 -33 32 -50 42 l-30 18 25 -23 c14 -13 32 -33
40 -43 14 -19 14 -19 -5 -5 -11 8 -30 24 -44 35 -21 17 -361 314 -385 335 -5
5 14 20 40 33 27 14 60 34 74 46 14 11 30 20 35 18 6 -1 58 -53 115 -116z
m-281 -38 l41 -38 -15 -60 c-8 -33 -28 -123 -45 -200 -40 -181 -102 -449 -106
-454 -6 -7 -214 32 -214 40 0 23 121 656 128 667 6 11 146 81 163 82 4 0 25
-17 48 -37z m248 -220 c86 -76 172 -152 192 -169 l36 -32 -33 -148 c-35 -157
-69 -274 -80 -274 -11 0 -427 73 -431 76 -3 3 132 622 145 667 3 9 8 17 10 17
3 0 76 -62 161 -137z m406 37 c54 -104 -39 -597 -141 -749 -52 -77 -98 -89
-122 -32 -10 26 -8 31 18 58 36 35 60 107 107 323 46 214 68 349 61 384 -13
63 46 75 77 16z m-3848 -119 c151 -23 205 -43 205 -73 0 -11 -5 -50 -11 -87
l-12 -69 -61 14 c-73 17 -164 49 -228 80 -63 32 -88 66 -88 121 0 44 1 45 28
40 15 -2 90 -14 167 -26z m992 -193 l-30 -177 -46 -10 c-153 -32 -673 -123
-678 -118 -8 9 50 383 61 394 3 3 27 -1 53 -11 40 -14 43 -16 15 -13 -27 3
-33 0 -38 -20 -8 -32 1 -52 31 -63 14 -5 25 -14 25 -18 0 -16 119 -34 178 -27
113 13 269 69 338 121 17 13 36 24 42 24 7 0 12 5 12 11 0 6 10 20 23 31 17
15 18 18 5 14 -28 -9 -21 12 10 28 15 8 27 14 28 13 1 -1 -12 -82 -29 -179z
m-52 129 c-11 -8 -42 -20 -69 -28 -47 -13 -48 -14 -20 -21 25 -6 24 -6 -11 -6
-36 1 -81 -5 -127 -18 -10 -3 -18 -1 -18 3 0 5 27 15 60 21 32 7 88 24 122 37
72 27 91 31 63 12z m-28 -43 c-3 -3 -12 -4 -19 -1 -8 3 -5 6 6 6 11 1 17 -2
13 -5z m-282 -34 c-41 -10 -187 -11 -202 -2 -6 4 43 8 110 8 69 0 109 -2 92
-6z m-771 -63 c17 -12 17 -15 -4 -52 -17 -30 -19 -40 -8 -46 21 -14 1 -10 -37
5 -19 8 -35 18 -35 21 0 10 52 85 59 85 4 0 15 -6 25 -13z m76 -37 c19 -11 31
-19 27 -20 -5 0 -18 5 -29 11 -17 9 -24 8 -33 -4 -7 -11 -16 -13 -26 -6 -12 7
-11 9 3 9 11 0 15 5 12 15 -8 20 3 18 46 -5z m-45 -80 c3 -6 -1 -7 -9 -4 -18
7 -21 14 -7 14 6 0 13 -4 16 -10z m1032 -156 c-3 -3 -12 -4 -19 -1 -8 3 -5 6
6 6 11 1 17 -2 13 -5z m-47 -13 c0 -4 -11 -6 -25 -3 -14 2 -25 6 -25 8 0 2 11
4 25 4 14 0 25 -4 25 -9z m290 -11 c18 -12 2 -12 -25 0 -13 6 -15 9 -5 9 8 0
22 -4 30 -9z m56 -18 c-10 -2 -22 0 -28 6 -6 6 0 7 19 4 21 -5 23 -7 9 -10z
m129 -23 c11 -11 12 -11 -55 6 l-55 15 50 -6 c28 -3 54 -10 60 -15z m-855 -8
c0 -20 -28 -30 -65 -24 l-39 6 39 13 c50 15 65 16 65 5z m345 -35 c101 -26
175 -77 175 -119 0 -29 -73 -196 -133 -301 l-51 -91 -9 43 c-21 107 -154 162
-266 112 -24 -11 -47 -20 -52 -20 -15 0 -79 62 -79 76 0 16 89 198 125 254 14
23 36 41 57 47 47 16 174 15 233 -1z m678 7 c-7 -2 -19 -2 -25 0 -7 3 -2 5 12
5 14 0 19 -2 13 -5z m162 -33 c58 -14 68 -18 35 -16 -50 5 -167 34 -135 35 11
0 56 -9 100 -19z m192 -46 c-3 -3 -12 -4 -19 -1 -8 3 -5 6 6 6 11 1 17 -2 13
-5z m-140 -10 c-3 -3 -12 -4 -19 -1 -8 3 -5 6 6 6 11 1 17 -2 13 -5z m-57 -14
c-34 -11 -60 -11 -35 0 11 5 29 8 40 8 16 0 15 -2 -5 -8z m429 -22 c28 -6 51
-15 51 -19 0 -4 -10 -5 -22 -2 -19 4 -20 3 -8 -6 9 -6 10 -11 3 -11 -6 0 -18
6 -25 13 -7 8 -27 19 -43 25 -41 14 -18 15 44 0z m-530 -10 c-2 -2 -17 -14
-34 -28 l-30 -25 24 28 c14 15 29 27 34 27 6 0 8 -1 6 -2z m822 -54 c31 -8 67
-14 80 -15 21 -1 20 -2 -6 -10 -53 -16 -169 -39 -195 -38 -23 1 73 28 112 32
10 1 14 5 10 9 -4 4 -25 3 -47 -2 -60 -14 -87 -10 -35 5 25 7 36 14 25 15 -11
1 -38 8 -60 15 l-40 14 50 -6 c28 -2 75 -11 106 -19z m-410 4 c65 -15 110 -58
150 -141 16 -34 27 -63 25 -65 -3 -2 -13 1 -24 7 -39 21 -115 13 -178 -19 -70
-35 -82 -36 -165 -10 -103 32 -199 110 -199 162 0 56 249 99 391 66z m-1567
-250 c-6 -20 11 -25 19 -5 4 8 6 7 6 -3 0 -8 -4 -22 -9 -30 -9 -13 -13 -12
-26 5 -21 26 -43 78 -38 87 9 15 54 -35 48 -54z m1182 -19 c30 -60 106 -137
168 -170 35 -18 46 -31 56 -63 7 -23 28 -55 46 -73 l34 -32 -66 -21 c-118 -36
-265 -62 -314 -55 -115 17 -198 100 -215 216 -9 60 8 121 46 164 24 27 50 41
108 59 42 13 84 25 93 25 12 1 27 -17 44 -50z m-871 11 c57 -54 51 -147 -14
-211 -85 -85 -216 -53 -237 56 -11 59 25 125 91 167 42 27 125 21 160 -12z
m1417 -20 c28 -28 30 -35 26 -85 -13 -152 -213 -252 -273 -136 -30 60 -13 131
46 190 70 69 150 81 201 31z m-1818 -8 c4 -10 21 -35 40 -55 22 -24 35 -50 39
-78 14 -106 128 -186 228 -159 23 6 43 10 45 8 4 -5 -127 -191 -178 -252 -55
-64 -92 -86 -150 -86 -117 0 -232 79 -262 179 -31 105 -18 181 46 263 61 78
169 198 179 198 4 0 10 -8 13 -18z m1416 -2 c19 -11 30 -19 23 -20 -7 0 -10
-6 -7 -14 3 -9 12 -12 21 -9 10 4 14 2 9 -5 -3 -6 3 -13 14 -17 19 -6 29 -25
13 -25 -27 0 -123 79 -123 101 0 13 10 11 50 -11z m-496 -49 c-22 -44 -22
-143 0 -209 32 -94 167 -212 242 -212 34 0 36 -13 13 -77 -49 -131 -106 -183
-202 -183 -58 0 -62 1 -103 45 -55 57 -81 137 -90 282 -12 202 23 326 105 370
25 13 46 22 48 20 2 -2 -4 -18 -13 -36z m571 19 c4 -6 11 -7 17 -4 7 4 8 2 4
-4 -5 -9 -13 -9 -27 -2 -10 6 -19 13 -19 15 0 9 19 5 25 -5z m-1799 -449 c20
-54 92 -133 149 -166 49 -29 110 -45 170 -47 28 0 45 -5 45 -12 0 -7 -13 -52
-30 -100 -57 -168 -125 -237 -234 -237 -106 0 -178 66 -212 196 -36 133 2 420
64 488 16 18 17 17 24 -29 4 -27 15 -69 24 -93z"/>
<path d="M5098 9443 c-2 -43 -2 -81 0 -85 2 -5 32 -8 68 -8 56 0 68 4 89 25
17 16 25 35 25 60 0 25 -8 44 -25 60 -21 21 -33 25 -89 25 l-64 0 -4 -77z"/>
<path d="M4293 9443 c-38 -5 -37 -2 -21 -105 13 -85 10 -84 87 -67 93 20 132
98 76 154 -24 25 -53 29 -142 18z"/>
<path d="M5127 7386 c-57 -16 -112 -64 -138 -122 -31 -67 -88 -534 -109 -885
-12 -205 -5 -254 45 -325 66 -92 101 -107 470 -198 395 -98 889 -189 1025
-190 133 0 200 55 230 189 30 133 90 755 90 931 0 140 -37 212 -132 257 -123
58 -890 258 -1248 326 -154 29 -180 31 -233 17z m1069 -296 c110 -26 130 -37
66 -36 -28 1 -48 4 -45 9 2 4 -5 7 -17 7 -13 0 -20 -5 -18 -12 7 -19 240 -82
249 -67 4 6 12 8 19 4 9 -6 9 -10 -1 -17 -11 -7 -11 -8 1 -6 19 3 58 -18 93
-50 15 -14 27 -21 27 -15 0 6 -6 13 -12 16 -10 4 -10 7 0 18 9 10 12 10 12 0
0 -7 4 -10 9 -6 6 3 15 -3 21 -12 10 -16 11 -16 6 -1 -6 22 8 32 22 15 25 -31
38 -103 32 -172 l-7 -70 -2 85 c-1 54 -5 80 -10 71 -5 -8 -9 -29 -9 -48 0 -19
-3 -37 -6 -40 -3 -4 -6 17 -6 45 0 40 -4 52 -15 52 -16 0 -21 -16 -6 -22 8 -3
-1 -93 -10 -102 -2 -2 -15 -7 -29 -10 -19 -6 -21 -5 -10 3 12 9 11 11 -6 11
-17 0 -23 8 -28 38 -4 20 -9 45 -12 54 -7 25 -74 60 -116 62 -20 0 -32 3 -27
7 5 3 -39 20 -98 38 -59 17 -119 35 -133 39 -19 6 -26 15 -28 40 -3 29 0 34
29 44 l32 11 -24 13 c-13 7 -33 11 -44 9 -11 -3 -14 -2 -6 1 11 5 11 8 0 16
-11 8 -10 9 3 4 9 -3 56 -14 104 -26z m-69 -16 c-3 -3 -12 -4 -19 -1 -8 3 -5
6 6 6 11 1 17 -2 13 -5z m330 -58 c21 -8 52 -17 68 -21 37 -8 75 -32 75 -47 0
-6 -9 -3 -20 7 -17 15 -20 16 -25 3 -5 -13 -11 -13 -43 4 -20 10 -36 23 -35
28 1 5 -11 11 -27 15 -16 4 -32 11 -35 16 -8 12 -2 11 42 -5z m-952 -95 c22
-10 57 -36 77 -59 83 -92 91 -264 11 -243 -21 6 -30 18 -45 61 -21 64 -49 95
-95 111 -68 22 -109 1 -174 -93 -14 -20 -19 -21 -43 -10 -68 31 3 184 109 233
51 24 109 24 160 0z m920 -51 c-3 -5 -12 -10 -18 -10 -7 0 -6 4 3 10 19 12 23
12 15 0z m65 -35 c6 -8 10 -20 7 -27 -4 -8 -6 -7 -6 4 -1 9 -9 22 -18 27 -10
6 -13 11 -7 11 6 0 17 -7 24 -15z m-145 -108 c21 -12 54 -41 71 -64 60 -79 70
-224 16 -231 -32 -5 -50 13 -63 60 -15 56 -65 107 -111 115 -52 8 -90 -11
-126 -63 -46 -64 -92 -57 -92 16 0 65 86 172 148 186 15 3 32 7 37 9 20 8 81
-7 120 -28z m-724 -318 c137 -111 274 -144 417 -100 108 33 133 9 87 -84 -30
-61 -73 -103 -148 -142 -70 -37 -196 -40 -270 -6 -66 31 -148 112 -181 179
-36 73 -46 163 -21 187 26 27 48 20 116 -34z"/>
<path d="M6626 6887 c3 -10 9 -15 12 -12 3 3 0 11 -7 18 -10 9 -11 8 -5 -6z"/>
<path d="M6518 6973 c7 -3 16 -2 19 1 4 3 -2 6 -13 5 -11 0 -14 -3 -6 -6z"/>
<path d="M4673 6168 c3 -10 1 -21 -4 -24 -13 -8 -11 -70 5 -137 17 -72 58
-131 110 -161 42 -24 120 -48 83 -26 -9 6 -15 15 -12 20 3 5 -3 11 -14 15 -11
3 -37 25 -59 49 -23 24 -44 41 -48 38 -4 -4 -4 -2 -1 5 8 13 -2 45 -12 39 -4
-3 -7 3 -8 12 -1 9 -5 56 -9 103 -5 65 -10 86 -21 86 -9 0 -13 -7 -10 -19z"/>
<path d="M5500 5660 c-9 -6 -10 -10 -3 -10 6 0 15 5 18 10 8 12 4 12 -15 0z"/>
<path d="M7626 6679 c-79 -62 -80 -193 -1 -245 96 -63 205 7 205 131 0 25 -7
60 -16 76 -29 57 -136 79 -188 38z m108 -65 c34 -33 6 -124 -38 -124 -13 0
-29 7 -36 15 -25 31 9 125 46 125 7 0 20 -7 28 -16z"/>
<path d="M7967 6553 c-55 -51 -321 -284 -384 -338 -30 -25 -29 -53 2 -67 29
-13 50 -1 140 81 33 31 131 119 218 195 86 77 157 143 157 147 0 8 -52 39 -65
39 -3 0 -34 -26 -68 -57z"/>
<path d="M7925 6333 c-59 -15 -105 -85 -105 -161 0 -137 188 -184 250 -62 37
73 18 180 -37 208 -25 13 -84 21 -108 15z m70 -90 c19 -19 14 -62 -11 -101
-23 -34 -68 -27 -72 12 -5 37 4 71 24 90 20 20 38 20 59 -1z"/>
<path d="M7606 5957 c-25 -36 -46 -67 -46 -71 0 -9 35 -7 46 3 15 15 64 1 64
-19 0 -15 18 -30 36 -30 7 0 3 123 -5 150 -13 48 -45 37 -95 -33z m64 -7 c0
-11 -7 -20 -15 -20 -17 0 -18 2 -9 24 9 23 24 20 24 -4z"/>
<path d="M7756 5938 c-32 -111 -33 -104 19 -122 26 -8 51 -13 56 -10 20 12 7
35 -21 41 -34 6 -35 10 -15 77 15 51 13 66 -10 66 -9 0 -20 -21 -29 -52z"/>
<path d="M7877 5886 c-9 -36 -19 -71 -22 -78 -5 -13 20 -23 100 -41 5 -1 11 5
13 15 2 11 -8 20 -32 28 -23 7 -33 16 -30 25 4 11 12 12 31 4 36 -13 56 6 29
27 -11 8 -26 14 -33 14 -7 0 -10 6 -7 14 4 11 13 12 37 5 18 -5 33 -9 34 -9 2
0 3 8 3 18 0 13 -12 22 -39 30 -62 19 -65 17 -84 -52z"/>
<path d="M4878 4438 c-32 -11 -39 -31 -68 -186 -20 -105 -21 -115 -5 -138 21
-33 37 -39 180 -68 66 -14 158 -34 205 -45 104 -25 132 -26 152 -3 23 25 71
274 59 305 -6 14 -14 27 -18 30 -5 3 -108 29 -228 57 -121 28 -227 53 -235 55
-8 2 -27 -1 -42 -7z m186 -77 c66 -16 155 -36 196 -46 42 -9 81 -19 88 -24 9
-6 7 -35 -12 -130 -14 -68 -27 -126 -30 -129 -4 -3 -90 13 -194 36 -223 50
-260 60 -267 72 -4 7 28 203 40 238 7 18 46 15 179 -17z"/>
<path d="M4930 4301 c0 -23 -4 -22 185 -65 150 -34 175 -35 175 -10 0 15 -27
24 -207 64 -157 35 -153 35 -153 11z"/>
<path d="M4910 4200 c0 -12 8 -22 23 -25 210 -48 207 -48 207 -16 0 14 -19 22
-94 39 -119 28 -136 28 -136 2z"/>
<path d="M5917 4192 c-51 -52 -58 -72 -26 -72 19 0 21 -4 15 -37 -24 -136 -20
-152 31 -153 19 0 23 8 33 73 15 96 17 100 40 94 11 -3 22 -1 25 3 6 10 -51
140 -62 140 -5 0 -30 -22 -56 -48z"/>
<path d="M6122 4148 c-51 -53 -56 -68 -21 -68 23 0 23 2 4 -95 -8 -43 -12 -82
-9 -86 3 -5 18 -9 34 -9 32 0 33 2 51 98 10 55 14 62 35 62 13 0 24 6 24 13 0
19 -52 137 -61 137 -4 0 -30 -23 -57 -52z"/>
<path d="M5822 3912 c-6 -2 -12 -12 -12 -22 0 -22 20 -30 195 -70 157 -36 195
-38 195 -11 0 11 -4 22 -8 25 -8 5 -248 62 -317 75 -22 4 -46 6 -53 3z"/>
<path d="M6930 4686 c0 -2 8 -10 18 -17 15 -13 16 -12 3 4 -13 16 -21 21 -21
13z"/>
<path d="M4065 3840 c-3 -5 -1 -10 4 -10 6 0 11 5 11 10 0 6 -2 10 -4 10 -3 0
-8 -4 -11 -10z"/>
<path d="M2961 9329 c-117 -59 -164 -103 -187 -171 -14 -44 -15 -62 -5 -142 7
-50 14 -109 17 -131 l5 -40 -20 37 c-12 20 -46 63 -76 96 -64 70 -117 90 -185
72 -62 -17 -551 -406 -582 -465 -27 -49 -28 -121 -3 -187 5 -12 -7 -16 -66
-21 -111 -9 -184 -49 -294 -161 -100 -101 -193 -213 -220 -265 -26 -53 -30
-129 -7 -172 l19 -36 -61 4 c-49 3 -67 0 -94 -16 -32 -21 -122 -148 -190 -271
-20 -36 -57 -103 -83 -149 -61 -106 -76 -170 -56 -228 l15 -43 -39 -11 c-67
-21 -85 -51 -176 -296 -119 -321 -125 -349 -87 -424 17 -34 79 -88 116 -101
15 -5 28 -13 28 -16 0 -4 -21 -16 -48 -26 -109 -45 -225 -206 -257 -361 -30
-142 -16 -266 42 -385 90 -183 278 -290 511 -290 145 0 259 42 356 131 69 63
108 124 142 224 24 70 28 96 28 200 0 117 -7 152 -48 246 -5 12 0 18 21 24 96
24 179 182 171 324 -5 103 -53 155 -176 192 -32 9 -41 16 -37 28 16 41 36 132
30 141 -10 16 -1 12 62 -23 110 -63 159 -70 229 -36 49 23 64 44 217 304 58
99 112 201 118 227 9 32 21 51 37 60 34 18 140 135 163 180 11 22 19 58 19 88
l0 50 35 0 c74 0 150 64 221 186 38 64 42 145 12 204 -31 61 -68 83 -186 110
l-100 23 -11 53 c-7 30 -23 74 -36 98 l-24 45 32 24 c18 13 37 27 44 30 8 5
63 -62 157 -187 79 -107 156 -202 171 -212 14 -9 48 -19 75 -22 39 -3 57 1 98
23 109 59 201 165 202 233 0 20 5 22 53 22 40 0 71 9 127 36 122 58 161 107
165 207 2 54 5 60 34 78 l31 19 44 -34 c88 -67 157 -57 307 45 66 44 97 88
105 150 12 85 -5 115 -133 240 -340 333 -506 488 -537 503 -64 30 -124 22
-235 -35z m251 -136 c182 -164 514 -487 522 -509 13 -32 -15 -61 -105 -108
-80 -41 -82 -41 -148 28 l-44 45 -118 -62 -118 -62 7 -40 c4 -22 7 -60 7 -85
l0 -45 -70 -37 c-82 -44 -131 -49 -145 -15 -5 12 -27 159 -49 327 -68 506 -66
486 -48 514 21 31 173 116 208 116 19 0 49 -20 101 -67z m-607 -295 c49 -57
68 -95 61 -123 -3 -12 -39 -47 -81 -79 -53 -40 -73 -61 -67 -69 13 -16 199
-261 283 -373 38 -50 69 -100 69 -112 0 -22 -83 -102 -133 -128 -25 -14 -31
-14 -51 0 -13 8 -98 115 -190 238 -92 123 -171 224 -175 226 -4 1 -41 -25 -82
-58 -41 -34 -83 -60 -96 -60 -16 0 -36 18 -67 57 -52 66 -59 85 -40 112 17 24
455 378 492 397 37 19 36 19 77 -28z m224 -337 c11 -85 19 -156 17 -158 -2 -2
-36 39 -75 91 l-72 95 37 33 c20 18 43 48 51 66 8 19 16 33 18 31 2 -2 13 -74
24 -158z m-839 -322 c103 -46 170 -147 170 -256 l0 -62 58 -11 c31 -7 100 -22
152 -34 89 -20 95 -23 98 -48 3 -28 -35 -95 -86 -150 -34 -37 -75 -36 -217 2
-60 16 -114 30 -120 30 -5 -1 -18 -11 -27 -24 -17 -24 -17 -24 72 -112 56 -55
90 -95 90 -108 0 -28 -97 -145 -126 -152 -31 -8 -25 -12 -338 280 -208 194
-266 254 -266 273 0 13 13 43 29 66 53 75 192 228 238 261 96 67 189 83 273
45z m-657 -625 c57 -29 97 -64 97 -86 0 -18 -87 -180 -147 -275 -13 -20 -12
-23 30 -47 24 -14 46 -26 50 -26 3 0 36 50 72 110 36 61 73 110 81 110 43 0
144 -68 144 -96 0 -8 -27 -61 -60 -118 -33 -57 -60 -107 -60 -110 0 -11 94
-69 97 -60 2 5 39 68 82 139 88 145 98 152 168 116 52 -26 83 -58 83 -83 0
-23 -6 -35 -153 -282 -61 -102 -109 -172 -123 -178 -27 -13 -25 -14 -417 220
-203 121 -279 171 -283 187 -6 26 27 97 129 270 144 245 142 243 210 209z
m247 -94 c9 -16 8 -18 -5 -14 -8 4 -15 12 -15 20 0 20 7 17 20 -6z m-580 -633
c31 -15 46 -29 48 -45 2 -13 -18 -86 -44 -163 -26 -77 -45 -141 -43 -142 2 -2
29 -13 61 -24 l56 -22 43 120 c50 138 55 142 143 109 84 -32 87 -45 41 -175
-20 -58 -35 -111 -32 -117 2 -7 47 -28 98 -47 142 -52 149 -56 149 -95 0 -36
-33 -140 -51 -162 -6 -8 -23 -14 -38 -14 -25 0 -612 219 -691 258 -27 13 -36
24 -38 47 -3 35 159 483 180 497 18 12 64 2 118 -25z m133 -812 c91 -37 167
-107 209 -193 31 -63 33 -72 33 -177 -1 -91 -5 -120 -24 -168 -64 -162 -197
-250 -376 -250 -187 -1 -336 83 -401 226 -23 51 -29 79 -32 156 -9 211 83 356
264 421 86 30 232 24 327 -15z"/>
<path d="M3124 8950 c3 -14 13 -68 22 -120 8 -52 17 -96 19 -98 1 -2 33 12 69
30 l66 33 -91 90 c-69 69 -89 84 -85 65z"/>
<path d="M1777 7968 l-50 -51 61 -59 c33 -32 64 -58 69 -58 4 1 25 22 46 48
49 62 51 108 6 146 -47 40 -75 34 -132 -26z"/>
<path d="M833 5849 c-50 -25 -81 -70 -89 -130 -14 -108 85 -192 229 -193 89 0
143 26 177 86 55 97 6 208 -109 247 -57 19 -160 14 -208 -10z m177 -145 c44
-18 52 -39 18 -50 -51 -16 -158 5 -158 31 0 35 74 45 140 19z"/>
<path d="M9062 6726 c-188 -64 -360 -125 -382 -136 -21 -11 -51 -36 -67 -57
-26 -34 -28 -43 -27 -122 0 -75 7 -107 53 -251 55 -171 82 -229 135 -285 l32
-34 -20 -38 c-17 -31 -21 -55 -20 -128 0 -108 15 -164 54 -208 l29 -33 -26
-53 c-27 -53 -27 -54 -14 -153 14 -117 23 -143 59 -181 39 -41 74 -57 127 -57
52 0 83 14 173 77 l64 44 66 -27 c130 -52 280 -41 382 28 137 93 193 251 170
485 -18 187 -40 284 -72 324 -25 30 -83 59 -120 59 -43 0 -46 5 -19 34 11 12
32 46 48 76 26 50 28 64 27 160 -1 118 -12 170 -81 360 -62 173 -96 215 -184
225 -38 5 -92 -10 -387 -109z m396 -24 c19 -19 67 -146 107 -286 54 -189 15
-315 -111 -356 -50 -17 -129 -8 -165 19 -17 13 -32 21 -33 19 -1 -1 -8 -23
-15 -48 -34 -117 -180 -173 -298 -115 -86 43 -119 100 -188 320 -50 163 -56
199 -34 221 13 13 677 242 707 243 6 1 20 -7 30 -17z m226 -864 c14 -24 30
-126 41 -279 17 -219 -80 -349 -259 -349 -77 0 -129 18 -182 63 -18 15 -35 27
-38 27 -4 0 -48 -30 -99 -66 -120 -87 -142 -97 -167 -84 -31 17 -62 169 -41
207 5 11 62 53 126 93 93 58 115 77 115 96 0 12 -4 25 -9 28 -5 3 -59 1 -121
-5 -95 -9 -115 -8 -127 4 -8 8 -20 51 -25 97 -15 117 -20 114 217 140 105 11
244 26 310 34 66 7 148 14 182 15 55 1 64 -2 77 -21z"/>
<path d="M9288 6436 c-65 -23 -66 -29 -25 -116 19 -38 27 -45 55 -48 39 -4 72
20 72 53 0 27 -28 123 -38 128 -4 2 -33 -6 -64 -17z"/>
<path d="M9003 6341 c-29 -9 -55 -20 -59 -23 -10 -10 35 -141 54 -155 42 -33
112 -2 112 49 0 46 -31 148 -44 147 -6 -1 -34 -9 -63 -18z"/>
<path d="M9418 5613 l-58 -4 0 -37 c0 -108 55 -157 135 -120 30 14 41 49 37
118 -4 47 -5 50 -30 48 -15 -1 -53 -3 -84 -5z"/>
<path d="M960 4574 c-109 -23 -218 -84 -290 -161 -105 -112 -147 -228 -137
-383 6 -108 36 -196 94 -282 54 -81 120 -136 207 -173 l65 -28 -42 -30 c-56
-41 -74 -64 -86 -114 -14 -55 -1 -115 47 -213 29 -59 45 -79 77 -97 60 -34
120 -31 205 12 l70 35 25 -50 c14 -29 42 -63 65 -79 l39 -28 -72 -54 c-90 -68
-128 -121 -135 -188 -6 -68 27 -134 150 -302 164 -222 179 -237 248 -248 34
-6 35 -7 40 -62 6 -62 9 -68 89 -152 65 -68 97 -87 146 -87 32 0 35 -3 35 -27
1 -46 34 -105 91 -160 85 -81 124 -103 183 -103 99 0 136 44 175 207 l23 91
46 12 c26 6 73 25 104 42 53 28 78 30 78 7 0 -5 -32 -56 -72 -112 -39 -56 -91
-130 -115 -164 -85 -120 -100 -192 -59 -272 17 -31 101 -99 172 -136 58 -31
97 -32 154 -3 37 19 61 47 147 173 57 83 117 169 132 192 l29 41 41 -20 40
-20 -141 -151 c-145 -157 -177 -205 -178 -269 0 -78 30 -119 130 -178 119 -71
199 -76 266 -18 49 43 67 31 74 -48 6 -69 19 -95 63 -127 50 -38 151 -86 196
-93 91 -15 169 29 190 108 19 73 91 832 82 865 -12 42 -36 85 -57 105 -11 9
-61 37 -113 63 -84 42 -99 47 -145 42 -28 -2 -59 -8 -68 -12 -13 -5 -19 0 -24
22 -17 73 -39 92 -356 317 -165 116 -182 126 -230 126 -35 0 -37 2 -53 49 -8
26 -29 69 -45 95 -39 62 -179 206 -255 263 -40 30 -64 56 -72 79 -7 19 -33 64
-59 101 -119 170 -179 251 -214 288 -25 26 -41 57 -49 90 -7 27 -54 135 -105
240 -97 199 -131 245 -193 266 -26 8 -33 15 -28 28 27 70 32 206 10 299 -69
293 -330 452 -635 386z m283 -121 c152 -60 243 -204 241 -383 -1 -103 -30
-175 -100 -244 -53 -53 -161 -110 -241 -127 -91 -18 -212 -7 -279 27 -142 72
-225 243 -202 416 21 159 147 282 332 324 75 17 187 11 249 -13z m354 -715
c29 -32 193 -376 193 -404 0 -26 -49 -64 -108 -85 -44 -15 -53 -6 -118 123
-30 59 -57 108 -59 108 -8 0 -88 -41 -101 -51 -8 -6 4 -37 37 -101 27 -51 49
-103 49 -115 0 -16 -14 -30 -54 -52 -89 -51 -99 -46 -165 87 -23 45 -46 82
-51 82 -5 0 -55 -25 -110 -55 -55 -30 -109 -55 -119 -55 -23 0 -42 22 -75 87
-32 65 -33 98 -3 115 170 97 627 337 643 337 11 1 30 -9 41 -21z m267 -540
c13 -13 77 -94 140 -181 133 -182 138 -196 77 -245 -22 -18 -51 -37 -65 -43
-33 -15 -40 -9 -131 115 -38 52 -74 96 -79 96 -4 0 -25 -14 -47 -31 l-38 -30
53 -72 c60 -82 76 -109 76 -131 0 -20 -96 -96 -120 -96 -11 0 -44 35 -85 90
-37 50 -70 90 -74 90 -4 0 -26 -14 -49 -31 l-41 -30 51 -72 c28 -40 66 -92 85
-116 18 -24 33 -52 33 -61 0 -18 -61 -79 -100 -100 -48 -26 -58 -16 -234 230
-102 143 -116 171 -95 196 26 32 587 444 604 444 8 0 25 -10 39 -22z m444
-556 c84 -77 145 -150 178 -212 25 -48 26 -172 1 -217 -53 -98 -138 -156 -236
-159 l-66 -3 -37 -142 c-20 -78 -42 -147 -47 -152 -17 -17 -55 1 -114 53 -42
39 -57 58 -57 78 0 15 19 83 41 151 l41 123 -21 22 -22 21 -81 -82 c-57 -59
-88 -83 -105 -83 -36 0 -133 95 -133 130 0 22 49 77 263 295 239 244 265 267
287 260 14 -4 62 -42 108 -83z m577 -518 c224 -160 250 -183 241 -212 -10 -31
-63 -99 -91 -118 -24 -16 -26 -15 -96 36 -39 28 -75 48 -79 43 -10 -11 -206
-292 -268 -384 -28 -42 -58 -79 -67 -82 -22 -9 -53 5 -113 52 -37 30 -52 48
-52 66 0 15 59 108 160 252 88 126 160 230 160 233 0 3 -22 20 -49 39 -27 18
-60 44 -72 58 l-23 24 23 43 c33 64 79 108 104 100 11 -3 111 -71 222 -150z
m587 -351 c28 -15 53 -36 57 -48 8 -22 5 -65 -29 -390 -42 -406 -44 -417 -62
-428 -22 -15 -80 4 -143 46 l-50 33 3 76 3 77 -48 24 c-26 14 -71 34 -100 47
l-51 22 -50 -52 c-57 -59 -58 -59 -158 -4 -80 44 -84 61 -32 122 121 140 477
507 502 517 34 15 73 4 158 -42z"/>
<path d="M1037 4240 c-144 -37 -217 -150 -157 -247 54 -89 230 -98 338 -16 87
65 81 193 -11 248 -34 20 -119 28 -170 15z m97 -146 c27 -10 18 -24 -26 -44
-46 -21 -113 -26 -123 -10 -15 25 108 70 149 54z"/>
<path d="M2155 2399 l-60 -60 42 -40 c54 -50 91 -52 135 -9 25 26 29 36 24 63
-7 36 -32 73 -62 93 -18 13 -25 8 -79 -47z"/>
<path d="M3242 1464 l-73 -85 56 -25 c31 -14 59 -24 61 -21 3 3 9 35 15 71 5
36 13 84 18 106 5 22 6 40 2 40 -3 -1 -39 -39 -79 -86z"/>
<path d="M8967 4549 c-65 -15 -133 -56 -181 -110 -69 -77 -95 -135 -139 -314
-32 -129 -38 -181 -27 -230 9 -39 8 -41 -41 -83 -60 -53 -110 -136 -185 -307
-48 -110 -57 -139 -57 -190 0 -62 16 -106 49 -137 11 -9 169 -91 352 -182 297
-148 338 -166 383 -166 103 0 150 49 238 245 95 214 118 326 87 428 l-14 46
42 6 c88 15 128 62 165 195 24 86 25 120 7 172 -13 35 -12 37 15 57 16 12 38
38 48 59 23 45 51 174 51 233 0 93 -70 169 -156 169 -22 0 -78 -10 -126 -22
l-86 -22 -50 46 c-102 96 -247 137 -375 107z m208 -128 c58 -28 91 -59 122
-117 l28 -51 138 39 c76 22 145 37 153 34 32 -12 -1 -196 -40 -221 -11 -8 -75
-26 -141 -40 -65 -14 -123 -31 -127 -38 -22 -35 -9 -46 95 -78 56 -17 108 -36
115 -41 17 -15 15 -46 -8 -122 -27 -87 -38 -92 -142 -61 -298 87 -591 176
-607 184 -32 17 -32 53 0 182 49 201 95 284 183 325 66 31 171 33 231 5z
m-299 -665 c53 -25 88 -63 99 -109 4 -15 8 -27 10 -27 2 0 22 9 46 20 58 26
113 25 174 -4 88 -41 125 -102 125 -206 0 -71 -47 -201 -128 -355 -39 -75 -51
-91 -73 -93 -29 -3 -634 293 -658 322 -19 22 -10 58 45 184 52 120 101 206
136 239 59 56 143 67 224 29z"/>
<path d="M9003 4201 c-23 -22 -50 -108 -37 -120 9 -8 125 -41 143 -41 13 0 31
57 31 97 0 69 -87 110 -137 64z"/>
<path d="M8743 3533 c-23 -34 -43 -79 -43 -97 0 -7 21 -22 47 -32 27 -11 51
-20 54 -22 10 -4 49 94 49 122 0 58 -74 78 -107 29z"/>
<path d="M9032 3443 c-7 -3 -28 -35 -47 -72 l-33 -67 64 -32 65 -32 24 55 c29
64 32 117 9 139 -15 15 -55 20 -82 9z"/>
<path d="M3270 3859 c0 -5 5 -7 10 -4 6 3 10 8 10 11 0 2 -4 4 -10 4 -5 0 -10
-5 -10 -11z"/>
<path d="M2694 3792 c-155 -54 -314 -229 -314 -347 0 -80 100 -207 175 -221
93 -17 216 31 316 123 92 86 146 192 134 266 -8 45 -83 150 -128 177 -40 25
-114 26 -183 2z m163 -64 c29 -28 29 -60 -2 -127 -51 -110 -195 -216 -308
-228 -50 -5 -58 -3 -82 21 -23 23 -26 32 -20 64 15 81 73 160 165 222 103 70
203 89 247 48z m85 -143 c-5 -120 -185 -288 -325 -302 -36 -3 -58 0 -71 9 -17
13 -13 16 48 32 78 22 174 80 234 145 46 48 92 128 92 158 0 13 3 14 12 5 6
-6 11 -28 10 -47z"/>
<path d="M2573 3598 c-43 -45 -63 -78 -63 -100 1 -7 8 3 16 22 8 19 34 54 57
78 22 23 39 42 36 42 -3 0 -23 -19 -46 -42z"/>
<path d="M2589 3583 c-13 -16 -12 -17 4 -4 16 13 21 21 13 21 -2 0 -10 -8 -17
-17z"/>
<path d="M3181 3724 c0 -11 3 -14 6 -6 3 7 2 16 -1 19 -3 4 -6 -2 -5 -13z"/>
<path d="M3765 3500 c-3 -5 -1 -10 4 -10 6 0 11 5 11 10 0 6 -2 10 -4 10 -3 0
-8 -4 -11 -10z"/>
<path d="M3263 3375 c3 -44 12 -104 18 -132 12 -53 17 -57 64 -54 18 1 18 0
-3 -12 -17 -10 -20 -15 -10 -25 15 -15 28 -16 28 -1 0 5 -5 7 -12 3 -7 -4 -8
-3 -4 5 4 7 17 9 29 6 18 -5 19 -4 7 4 -13 10 -13 12 0 21 12 8 12 10 1 10
-11 0 -11 3 -1 15 9 11 9 15 1 15 -6 0 -14 -7 -18 -16 -6 -15 -8 -15 -20 2
-19 26 -16 36 7 29 22 -7 27 10 7 22 -8 4 -18 28 -24 53 l-11 45 -1 -35 c-2
-32 -3 -33 -12 -12 -5 13 -7 28 -3 33 3 5 1 9 -5 9 -5 0 -12 -8 -14 -17 -3
-11 -5 -6 -7 12 -3 53 -9 87 -16 94 -4 3 -4 -30 -1 -74z m50 -142 c12 -34 12
-40 1 -36 -8 3 -14 9 -14 13 0 4 -3 23 -6 41 -9 44 1 35 19 -18z"/>
<path d="M3360 3360 c0 -5 5 -10 11 -10 5 0 7 5 4 10 -3 6 -8 10 -11 10 -2 0
-4 -4 -4 -10z"/>
<path d="M3546 3353 c-6 -14 -5 -15 5 -6 7 7 10 15 7 18 -3 3 -9 -2 -12 -12z"/>
<path d="M3575 3350 c-10 -11 -16 -22 -14 -24 2 -2 12 7 22 20 22 29 17 32 -8
4z"/>
<path d="M3350 3296 c0 -8 7 -16 15 -20 13 -4 14 -2 5 14 -13 23 -20 26 -20 6z"/>
<path d="M3472 3253 c7 -9 7 -13 -1 -13 -6 0 -11 -5 -11 -11 0 -14 18 -2 29
19 7 14 5 18 -9 18 -14 0 -16 -3 -8 -13z"/>
<path d="M6433 3240 c-102 -21 -169 -76 -203 -167 -49 -130 -31 -228 58 -318
153 -156 401 -131 485 48 42 89 52 154 33 219 -41 143 -222 249 -373 218z
m196 -95 c117 -64 160 -193 94 -284 -69 -95 -243 -93 -351 4 -64 57 -86 103
-80 165 14 140 184 198 337 115z m-257 -357 c64 -38 151 -61 206 -54 l47 5
-35 -16 c-47 -21 -144 -6 -208 34 -45 27 -112 103 -112 125 0 6 13 -7 29 -29
16 -22 48 -51 73 -65z"/>
<path d="M6446 3131 c-4 -5 12 -7 36 -4 57 8 61 13 10 13 -22 0 -43 -4 -46 -9z"/>
<path d="M6546 3115 c4 -10 13 -13 25 -10 12 4 19 2 19 -7 0 -13 36 -42 53
-43 5 0 17 -11 28 -25 15 -20 18 -21 13 -5 -10 31 -55 76 -91 91 -42 18 -54
18 -47 -1z m88 -41 c5 -14 4 -15 -9 -4 -17 14 -19 20 -6 20 5 0 12 -7 15 -16z"/>
<path d="M8184 3051 c-41 -10 -91 -49 -144 -112 -86 -103 -99 -166 -55 -274
14 -33 25 -61 25 -61 0 -1 -27 7 -61 17 -78 24 -122 24 -173 -1 -41 -20 -137
-119 -174 -178 -12 -20 -42 -43 -82 -64 -110 -55 -180 -140 -180 -220 0 -15
-4 -15 -31 -6 -17 6 -46 8 -65 5 -49 -8 -146 -70 -192 -122 -26 -30 -48 -45
-64 -45 -58 0 -248 -115 -248 -151 0 -5 -16 -9 -34 -9 -65 0 -195 -49 -237
-88 -40 -38 -69 -117 -69 -189 0 -17 -4 -34 -8 -37 -4 -2 -32 20 -62 51 -30
30 -65 59 -78 64 -60 23 -170 4 -280 -49 -34 -16 -48 -18 -74 -10 -25 7 -82 3
-243 -21 -264 -39 -290 -46 -335 -91 l-37 -37 -34 24 c-72 50 -145 63 -343 63
-175 0 -182 -1 -225 -26 l-45 -25 -25 20 c-74 59 -155 89 -331 120 -176 32
-216 28 -277 -31 -37 -36 -46 -59 -68 -173 -9 -44 -38 -197 -66 -340 -28 -143
-51 -285 -52 -316 -1 -119 75 -180 244 -196 121 -11 188 35 210 146 l13 59 91
4 c76 3 102 9 145 31 28 15 54 27 56 27 2 0 3 -55 2 -122 -2 -136 6 -164 62
-211 39 -33 75 -40 198 -35 90 3 102 5 136 31 l37 29 20 -26 c29 -37 81 -49
202 -44 100 3 107 5 144 34 l38 31 27 -20 c42 -32 121 -32 333 -2 236 33 286
46 318 85 14 16 27 34 29 41 2 7 18 2 42 -15 49 -33 96 -34 200 -2 109 34 166
92 166 169 0 33 1 34 64 51 36 10 73 24 82 31 15 11 21 8 41 -16 13 -15 44
-35 69 -45 54 -21 114 -11 210 35 67 32 98 65 116 122 8 30 14 36 24 28 7 -6
37 -13 66 -16 48 -4 61 -1 135 36 45 23 95 57 112 76 47 54 61 132 34 201 -4
11 2 11 33 -3 54 -23 183 -23 251 0 74 26 192 106 236 159 20 24 49 71 64 104
25 52 28 71 28 156 0 54 2 98 4 98 2 0 11 -8 20 -19 60 -69 146 -89 221 -51
41 21 123 108 153 163 19 35 23 111 7 152 -9 24 -6 31 35 72 25 24 45 48 45
51 1 26 18 32 46 17 41 -21 77 -19 132 9 48 24 121 106 157 175 23 45 17 125
-14 175 -32 52 -527 483 -594 518 -42 21 -85 28 -123 19z m172 -202 c229 -193
435 -375 447 -395 4 -8 1 -26 -7 -41 -17 -34 -99 -123 -112 -123 -16 0 -67 40
-195 155 -68 61 -120 103 -117 95 4 -8 29 -64 56 -125 71 -158 70 -145 13
-206 l-49 -54 -127 43 c-70 24 -133 46 -141 49 -13 5 34 -42 193 -192 72 -67
81 -86 58 -121 -29 -44 -94 -104 -114 -104 -15 0 -452 402 -528 486 -41 45
-31 79 40 151 35 35 72 63 83 63 11 0 98 -27 194 -59 96 -33 176 -58 178 -57
1 2 -31 80 -73 175 -41 94 -75 183 -75 197 0 34 113 154 145 154 14 0 66 -36
131 -91z m-704 -576 c47 -50 270 -377 296 -433 56 -124 25 -260 -79 -354 -139
-125 -303 -133 -427 -21 -63 56 -322 429 -322 462 0 20 55 72 102 97 60 32 71
23 211 -178 70 -101 139 -195 153 -209 32 -32 71 -39 110 -21 41 20 58 53 51
103 -5 41 -16 59 -213 344 -40 60 -74 113 -74 119 0 25 121 116 156 118 5 0
22 -12 36 -27z m-615 -415 c31 -40 333 -640 333 -662 0 -28 -21 -45 -108 -87
-33 -17 -49 -19 -65 -12 -15 7 -69 102 -169 294 -196 380 -195 376 -182 397
15 24 124 81 155 82 15 0 31 -6 36 -12z m-294 -150 c20 -16 43 -76 163 -431
51 -153 91 -284 87 -293 -7 -19 -43 -37 -109 -57 -77 -23 -82 -17 -150 185
-31 95 -59 169 -61 163 -1 -5 -9 -70 -17 -142 -7 -73 -19 -140 -26 -148 -7 -8
-36 -22 -66 -31 -65 -19 -63 -20 -173 102 -47 52 -86 92 -88 91 -1 -2 22 -77
52 -168 30 -90 55 -174 55 -185 0 -29 -16 -40 -93 -64 -50 -15 -72 -18 -86
-10 -21 10 -48 87 -165 466 -36 117 -66 225 -66 241 0 37 20 55 93 82 101 37
98 39 253 -126 l139 -146 18 183 c10 101 24 199 32 216 12 29 23 36 92 58 92
29 94 30 116 14z m-2466 -223 c156 -29 223 -56 276 -109 94 -98 90 -285 -10
-396 -60 -67 -115 -85 -237 -77 -50 3 -97 7 -105 9 -13 3 -18 -14 -46 -169 -9
-48 -34 -57 -111 -43 -36 7 -75 20 -87 30 l-22 18 17 101 c45 264 123 634 135
647 19 19 30 18 190 -11z m1623 -45 c6 -11 13 -48 17 -83 4 -50 2 -65 -10 -76
-9 -7 -76 -22 -148 -34 l-131 -21 6 -49 c3 -27 7 -52 10 -54 2 -3 55 3 116 12
137 22 140 20 148 -84 5 -68 4 -71 -21 -80 -14 -6 -67 -16 -119 -23 l-93 -14
1 -52 c1 -29 4 -55 6 -58 3 -2 69 5 148 17 166 24 164 25 181 -65 15 -81 7
-103 -39 -116 -40 -11 -386 -60 -425 -60 -14 0 -34 8 -45 17 -22 19 -22 17
-104 656 -16 121 -21 118 212 155 231 37 275 39 290 12z m-827 -50 c75 -12
142 -46 179 -90 51 -62 73 -183 46 -261 -16 -49 -62 -112 -91 -128 l-26 -14
70 -132 c38 -72 69 -139 69 -148 0 -25 -33 -37 -104 -37 -105 0 -109 3 -177
145 -57 118 -62 125 -89 125 l-30 0 0 -108 c0 -145 -5 -152 -109 -152 -48 0
-84 5 -95 13 -22 16 -22 23 -12 431 10 397 -5 366 183 366 70 0 154 -4 186
-10z"/>
<path d="M4246 1208 c-9 -46 -16 -88 -16 -95 0 -17 75 -26 113 -14 37 13 57
44 57 91 0 57 -25 80 -101 94 l-36 6 -17 -82z"/>
<path d="M4930 1142 c0 -39 -3 -77 -6 -86 -5 -14 3 -16 55 -16 52 0 66 4 86
25 32 31 32 75 3 110 -18 20 -35 27 -80 32 l-58 6 0 -71z"/>
<path d="M4433 2410 c-170 -61 -328 -226 -349 -366 -7 -50 10 -94 66 -166 90
-116 179 -126 355 -42 77 37 190 148 229 227 35 70 44 139 23 187 -20 49 -92
137 -130 161 -41 25 -124 25 -194 -1z m172 -65 c53 -52 16 -156 -94 -266 -87
-87 -175 -132 -261 -133 -102 -1 -128 58 -74 168 83 170 348 313 429 231z m99
-128 c6 -27 -8 -87 -34 -137 -29 -56 -138 -157 -209 -192 -75 -38 -167 -49
-200 -25 -21 14 -19 15 38 26 79 16 178 72 248 141 63 62 118 141 129 183 8
33 20 35 28 4z"/>
<path d="M4336 2231 c-11 -12 -14 -21 -7 -26 6 -3 12 -4 12 -1 1 3 2 9 3 14 1
4 5 13 9 20 12 18 2 15 -17 -7z"/>
<path d="M4296 2201 c-4 -6 -5 -11 -1 -11 3 0 1 -9 -5 -20 -6 -11 -16 -17 -22
-14 -7 5 -8 2 -3 -5 5 -10 14 -6 33 13 19 19 23 29 15 37 -8 8 -13 8 -17 0z"/>
<path d="M4210 2069 c0 -5 5 -7 10 -4 6 3 10 8 10 11 0 2 -4 4 -10 4 -5 0 -10
-5 -10 -11z"/>
<path d="M4480 1919 c0 -5 5 -7 10 -4 6 3 10 8 10 11 0 2 -4 4 -10 4 -5 0 -10
-5 -10 -11z"/>
</g>
</svg>
